<?xml version="1.0" encoding="utf-8"?>
<!-- Generator: Adobe Illustrator 16.0.0, SVG Export Plug-In . SVG Version: 6.00 Build 0)  -->
<!DOCTYPE svg PUBLIC "-//W3C//DTD SVG 1.1//EN" "http://www.w3.org/Graphics/SVG/1.1/DTD/svg11.dtd">
<svg version="1.1" id="Layer_1" xmlns="http://www.w3.org/2000/svg" xmlns:xlink="http://www.w3.org/1999/xlink" x="0px" y="0px"
	 width="252px" height="149.9px" viewBox="0 0 252 149.9" style="enable-background:new 0 0 252 149.9;" xml:space="preserve">
<g>
	<g>
		<path d="M125.3,3.8c-3.5,3-5.6,6.4-7.5,9.7c-4.6,8.1-9.4,12.4-15.9,12.4c-3.2,0-5-1.2-5-3c0-1.3,1.4-2.7,2.6-2.7
			c0.7,0,1.2,0.5,1.2,1.1c0,0.7-0.5,1.2-1.1,1.2c-0.4,0-0.7-0.2-1.1-0.2c-0.4,0-0.7,0.4-0.7,0.9c0,1,1.3,2,3.7,2
			c4.7,0,7.8-3,11.7-8.4c2.8-3.9,5.9-9,11.6-13.4L125.3,3.8z M134.1,0.5c-2.1,1.3-4.4,1.9-7.2,1.9c-3.9,0-8-1.1-12.5-1.1
			c-6.2,0-10.2,4.2-10.2,7.5c0,2,1.5,3.3,4,3.3c3.6,0,7.4-2.6,9.9-7.3h0.6c-1.8,5-6.1,8.1-10.4,8.1c-3.1,0-5-1.7-5-4.1
			c0-4.1,4.8-8.8,12.8-8.8c5.3,0,9.7,1,13,1c1.7,0,3.1-0.3,4.4-0.9L134.1,0.5z"/>
		<path d="M122.5,18.3c3.2-2.9,5.7-4.3,7.4-4.3c1,0,1.6,0.5,1.6,1.3c0,0.8-0.6,2-1.8,3.5l-3.4,4c-0.7,0.8-1.1,1.4-1.1,1.7
			c0,0.3,0.2,0.5,0.6,0.5c1.2,0,3.7-1.5,7.3-4.7l0.4,0.5c-3.6,3.4-6.4,5-8.1,5c-0.8,0-1.3-0.6-1.3-1.6c0-0.9,0.6-2.3,1.8-3.7l3.4-4
			c0.6-0.6,0.8-1.1,0.8-1.3c0-0.3-0.2-0.5-0.6-0.5c-2,0-6.9,3.2-12.2,10.7h-2.2l10.6-14.2c4.9-6.5,9-9.7,11.2-9.7c0.6,0,1,0.4,1,1
			c0,2-4,7.1-13,12.3L122.5,18.3z M137.2,2.8c0-0.3-0.3-0.5-0.6-0.5c-2,0-5.2,4-10.7,11.3C133.8,8.6,137.2,4.3,137.2,2.8z"/>
		<path d="M132.9,24.1c0,0.6,0.5,0.9,1.3,0.9c1.8,0,5-1.4,9-4.6l0.4,0.6c-4.2,3.4-7.6,4.9-9.6,4.9c-1.4,0-2.3-0.9-2.3-2
			c0-2.2,1.5-4.6,4.3-7c2.5-2,5.1-3,6.7-3c1,0,1.5,0.3,1.5,1.1c0,1.6-3.1,4.2-9.4,5.8C133.5,22.3,132.9,23.5,132.9,24.1z M143.4,15
			c0-0.3-0.2-0.5-0.7-0.5c-1.4,0-3.9,1.6-7,5.1C140.9,18.4,143.4,15.9,143.4,15z"/>
		<path d="M17.3,59c-2.7,0-4.3-0.1-6.2-0.3V68c0,2.7,0.3,3.8,5.4,4.4c0.3,0.1,0.4,0.3,0.4,0.7s-0.2,0.7-0.4,0.7
			c-3.4,0-4.8-0.3-8-0.3c-3.2,0-4.6,0.3-8.1,0.3c-0.2,0-0.4-0.3-0.4-0.7s0.2-0.7,0.4-0.7c5.1-0.6,5.4-1.7,5.4-4.4V43.4
			c0-2.7-0.4-3.8-5.4-4.4C0.2,39,0,38.7,0,38.3c0-0.4,0.2-0.7,0.4-0.7c3.4,0,4.8,0.3,8.1,0.3c3.2,0,4.6-0.3,8-0.3
			c9.2,0,13.1,4.2,13.1,10.6C29.6,54.3,24.2,59,17.3,59z M8.9,68.8V42.7c0-1.8,0.4-3.5,2.6-3.9c-1.4,0.2-1.9,0.2-3.6,0.2
			c-1.7,0-2.5-0.1-3.9-0.2c2,0.5,2.9,2.1,2.9,3.9v26.1c0,1.8-0.9,3.4-2.9,3.9c1.4-0.2,2.1-0.2,3.9-0.2c1.7,0,2.5,0.1,3.8,0.2
			C9.7,72.2,8.9,70.5,8.9,68.8z M16.3,39.3c-5.1,0-5.2,1.4-5.2,4.1v12c0,1.6,0.9,1.9,3.8,1.9c6.4,0,8.9-4.2,8.9-9.1
			C23.8,41.9,20.1,39.3,16.3,39.3z M17.4,38.6c4.8,0.4,7.5,4.6,7.5,9.6c0,5.1-2.9,10-9.2,10c6.3,0.6,11.6-3.8,11.6-10
			C27.3,42.8,23.9,38.6,17.4,38.6z"/>
		<path d="M64.7,73.8c-3.4,0-4.5-0.3-7.4-0.3c-3.2,0-4.7,0.3-8.2,0.3c-0.2,0-0.4-0.3-0.4-0.7c0-0.4,0.1-0.7,0.3-0.7
			c3.4-0.2,4.4-0.9,4.4-2.2c0-0.6-0.2-1.4-0.5-2.2l-3-8.7H39.2l-3,8c-0.3,0.9-0.6,1.8-0.6,2.5c0,1.4,0.9,2.3,4.2,2.5
			c0.2,0.1,0.3,0.4,0.3,0.7c0,0.4-0.2,0.7-0.4,0.7c-3.1,0-3.8-0.3-6.7-0.3c-2.3,0-3.4,0.3-5.8,0.3c-0.3,0-0.4-0.3-0.4-0.7
			c0-0.4,0.4-0.7,0.6-0.7c3.6-0.3,4.7-2.1,6-5.2l12.2-30c0.1-0.3,0.4-0.4,0.7-0.4c0.4,0,0.7,0.2,0.7,0.4l10.8,30
			c0.9,2.7,2.5,4.7,6.6,5.2c0.2,0.1,0.5,0.4,0.5,0.7C65.2,73.5,65,73.8,64.7,73.8z M33.8,70.1c0-0.5,0.1-1.1,0.3-1.8
			c-0.9,2.1-1.9,3.5-3.5,4.3c0.8-0.1,1.6-0.1,2.6-0.1c0.7,0,1.3,0,1.8,0.1C34.1,71.8,33.8,70.9,33.8,70.1z M44.8,44.3l-5,13.3h9.5
			L44.8,44.3z M56.5,68.8L46,39.1l-1,2.6l9.3,27.1c0.2,0.5,0.3,1.1,0.3,1.6c0,1.1-0.6,2-1.8,2.3c1.4-0.2,2.1-0.2,3.8-0.2
			s2.7,0,4.1,0.2C58.4,72.2,57,70.4,56.5,68.8z"/>
		<path d="M102.5,73.8c-1.8,0-4.1-0.3-5.3-0.3c-1.5,0-3.2,0.3-4.7,0.3l-7.9-12.9c-2.3-3.8-2.9-4.2-6.8-4.2V68c0,2.7,0.4,3.8,5.4,4.4
			c0.2,0.1,0.4,0.3,0.4,0.7s-0.2,0.7-0.4,0.7c-3.4,0-4.8-0.3-8.1-0.3c-3.2,0-4.6,0.3-8,0.3c-0.3,0-0.4-0.3-0.4-0.7s0.2-0.7,0.4-0.7
			c5.1-0.6,5.4-1.7,5.4-4.4V43.4c0-2.7-0.3-3.8-5.4-4.4c-0.3,0-0.4-0.3-0.4-0.7c0-0.4,0.2-0.7,0.4-0.7c3.4,0,4.8,0.3,8,0.3
			c3.2,0,4.6-0.3,8.1-0.3c8,0,12.2,3.6,12.2,9.4c0,4-3.4,7.2-8.2,9l8.4,12.8c0.9,1.5,2.2,3.1,6.9,3.6c0.2,0.1,0.4,0.3,0.4,0.7
			S102.8,73.8,102.5,73.8z M75.5,68.8V42.7c0-1.8,0.4-3.5,2.7-3.9c-1.4,0.2-1.9,0.2-3.6,0.2c-1.7,0-2.5-0.1-3.8-0.2
			c2,0.5,2.8,2.1,2.8,3.9v26.1c0,1.8-0.8,3.4-2.8,3.9c1.4-0.2,2.1-0.2,3.8-0.2c1.7,0,2.4,0.1,3.9,0.2C76.4,72.2,75.5,70.5,75.5,68.8
			z M83,39.3c-5.1,0-5.2,1.4-5.2,4.1v11.6c1.1,0.2,2.3,0.2,3.8,0.2c5.9,0,8.1-2.9,8.1-8.3C89.7,42.5,88,39.3,83,39.3z M94.4,70.2
			L85,56c-0.7,0.2-1.9,0.3-2.9,0.3h-0.5c1.6,0.5,2.3,1.5,3.8,3.9l7.8,12.6c1-0.1,2.6-0.2,3.6-0.3C95.6,71.9,95.1,71.3,94.4,70.2z
			 M84.3,38.6c4.6,0.2,6.5,3.8,6.5,8.3s-1.6,7-4,8.2c3.8-1.8,6.4-4.3,6.4-8.2C93.1,41.9,90.5,38.6,84.3,38.6z"/>
		<path d="M116.5,74.7c-4.5,0-6.5-1.6-10.4-1.6c-0.1-2.8-0.4-6.4-0.6-8.9c0-0.3,0.4-0.4,0.8-0.4c0.4,0,0.6,0.1,0.7,0.4
			c1.9,6.5,4.5,8.8,9.7,8.8c4.5,0,6.6-2.8,6.6-6.9c0-8.4-17.1-9.1-17.1-19.2c0-5.2,4.2-10.1,11.1-10.1c3.6,0,4.7,0.9,8,0.9
			c0.2,3,0.4,5.2,0.8,8.1c0.1,0.2-0.3,0.4-0.7,0.4c-0.4,0-0.7-0.1-0.8-0.4c-1.2-5.3-3.4-7.4-7.5-7.4c-4,0-6.4,2.6-6.4,6.4
			c0,7.5,17,9,17,18.5C127.9,70.2,123.5,74.7,116.5,74.7z M106.9,69.1c0.1,1,0.1,2,0.2,2.9c0.7,0.1,1.4,0.2,2,0.3
			C108.2,71.5,107.5,70.5,106.9,69.1z M116.9,54.4c-3.9-2.1-8.1-5-8.1-9.2c0-3.1,2-6,5.4-7.2c-4.8,1.3-7,5.3-7,8.4
			c0,10.2,17.2,10.2,17.2,19.6c0,3.5-1.6,6.2-4.5,7.2c3.8-1.1,6.2-4.4,6.2-8.8C126.1,59.8,121.9,57.3,116.9,54.4z M123.5,38.6
			c-1-0.2-1.9-0.4-2.8-0.5c1.2,0.4,2.2,1.1,3,2.3C123.6,39.9,123.6,39.3,123.5,38.6z"/>
		<path d="M152.3,74.7c-11.9,0-19.2-8.3-19.2-18.8c0-10.4,7.2-19.1,19.2-19.1c12,0,19.2,8.7,19.2,19.1
			C171.6,66.4,164.3,74.7,152.3,74.7z M136.6,55.7c0-9.6,5.3-16.3,12.3-17.7c-9.2,1.5-14.5,8.9-14.5,17.7c0,8.9,5.3,16.4,14.5,17.9
			C141.8,72.2,136.6,65.3,136.6,55.7z M152.3,38.4c-8.6,0-13.5,7.8-13.5,17.5s4.9,17,13.5,17c8.5,0,13.5-7.4,13.5-17
			S160.9,38.4,152.3,38.4z M155.9,38c7,1.8,11.2,9,11.2,17.7c0,8.8-4.2,16.1-11.2,17.9c9.2-1.8,13.4-9.7,13.4-17.9
			C169.3,47.6,165.1,39.8,155.9,38z"/>
		<path d="M216.1,39.1c-5.1,0.6-5.7,1.7-5.7,4.4l-0.6,30.7c0,0.3-0.2,0.5-0.6,0.5c-0.4,0-0.6-0.2-0.8-0.4l-26.9-30.4L181.1,68
			c-0.1,2.7,0.7,3.8,5.7,4.4c0.3,0.1,0.4,0.3,0.4,0.7s-0.2,0.7-0.4,0.7c-2.7,0-4.7-0.3-7.1-0.3c-2.6,0-4.4,0.3-6.8,0.3
			c-0.2,0-0.4-0.3-0.4-0.7c0-0.4,0.2-0.7,0.5-0.7c5.1-0.6,5.6-1.7,5.7-4.4l0.9-24.6c0.1-2.7-0.7-3.8-5.8-4.4c-0.2,0-0.4-0.3-0.4-0.7
			c0-0.4,0.2-0.7,0.4-0.7c1.8,0,3.2,0.3,4.7,0.3c1.8,0,2.6-0.3,4.4-0.3l25.1,28.1V43.4c0-2.7-0.9-3.8-5.9-4.4
			c-0.3-0.1-0.4-0.3-0.4-0.7s0.2-0.7,0.4-0.7c2.7,0,4.7,0.3,7.1,0.3c2.6,0,4.4-0.3,6.8-0.3c0.3,0,0.4,0.3,0.4,0.7
			C216.6,38.7,216.3,39,216.1,39.1z M179.4,70c-0.4,1.2-1.1,2.1-2.9,2.6c1-0.1,2.1-0.2,3.2-0.2c0.5,0,1,0.1,1.5,0.1
			C180.1,71.9,179.6,71.1,179.4,70z M181,38.7c-0.7,0.1-1.5,0.2-2.5,0.2c-0.4,0-1.3-0.1-1.7-0.1c1.4,0.2,2.1,0.7,2.8,1.5l28.5,32.1
			l0.1-3.3L181,38.7z M209.3,38.9c-1.2,0-2.3-0.1-3.4-0.2c1.6,0.5,2.8,1.5,3.1,2.7c0.2-1.2,0.9-2.1,2-2.6
			C210.5,38.9,209.8,38.9,209.3,38.9z"/>
		<path d="M219.7,51.8c-0.2,0.1-0.5,0-0.8-0.3c-0.2-0.4-0.3-0.7-0.1-0.8c2.1-1.4,4.3-3.5,4.3-6.5c0-0.8-0.1-1.2-0.4-1.2
			c-0.2,0-0.5,0.2-0.8,0.2c-1.7,0-2.9-1.4-2.9-3.1c0-1.7,1.4-3,3.1-3c2.4,0,4,2.3,4,5.1C226,45.7,224.5,49.1,219.7,51.8z M221.6,38
			c-0.8,0-1.6,0.8-1.6,2c0,1.3,0.9,2,1.5,2c0.5,0,1.4-0.4,2-0.1c0.3,0.2,0.4,0.5,0.4,1.4C224,43,224,42.4,224,42
			C224,39.1,223,38,221.6,38z"/>
		<path d="M240.6,74.7c-4.5,0-6.5-1.6-10.4-1.6c-0.1-2.8-0.4-6.4-0.6-8.9c0-0.3,0.4-0.4,0.8-0.4c0.4,0,0.6,0.1,0.7,0.4
			c1.9,6.5,4.5,8.8,9.7,8.8c4.5,0,6.6-2.8,6.6-6.9c0-8.4-17.1-9.1-17.1-19.2c0-5.2,4.2-10.1,11.1-10.1c3.6,0,4.7,0.9,8,0.9
			c0.2,3,0.4,5.2,0.8,8.1c0.1,0.2-0.3,0.4-0.7,0.4c-0.4,0-0.7-0.1-0.8-0.4c-1.2-5.3-3.4-7.4-7.5-7.4c-4,0-6.4,2.6-6.4,6.4
			c0,7.5,17,9,17,18.5C252,70.2,247.6,74.7,240.6,74.7z M231,69.1c0.1,1,0.1,2,0.2,2.9c0.7,0.1,1.4,0.2,2,0.3
			C232.3,71.5,231.7,70.5,231,69.1z M241,54.4c-3.9-2.1-8.1-5-8.1-9.2c0-3.1,2-6,5.4-7.2c-4.8,1.3-7,5.3-7,8.4
			c0,10.2,17.2,10.2,17.2,19.6c0,3.5-1.6,6.2-4.5,7.2c3.8-1.1,6.2-4.4,6.2-8.8C250.2,59.8,246,57.3,241,54.4z M247.6,38.6
			c-1-0.2-1.9-0.4-2.8-0.5c1.2,0.4,2.2,1.1,3,2.3C247.7,39.9,247.7,39.3,247.6,38.6z"/>
		<path d="M76.7,94.7c-0.3,0-0.5-0.2-0.5-0.4c-1.6-5.3-4.4-6.7-9.4-6.7h-2.4c-1.7,0-2.2,0.4-2.2,2v26.5c0,2.7,0.4,3.8,5.4,4.4
			c0.3,0.1,0.4,0.3,0.4,0.7s-0.2,0.7-0.4,0.7c-3.4,0-4.8-0.3-8-0.3c-3.2,0-4.6,0.3-8.1,0.3c-0.2,0-0.4-0.3-0.4-0.7s0.2-0.7,0.4-0.7
			c5.1-0.6,5.4-1.7,5.4-4.4V89.6c0-1.6-0.6-2-2.2-2h-2c-4.5,0-9.3,2.5-10.6,6.7c-0.1,0.3-0.3,0.4-0.6,0.4c-0.6,0-1-0.3-0.9-0.6
			c1.2-3.2,1.9-5.7,2.8-8.9c2,0.4,6.7,0.7,16.2,0.7c9.5,0,14.5-0.3,16.6-0.7c0.4,3.3,0.8,5.3,1.5,8.9C77.6,94.5,77.3,94.7,76.7,94.7
			z M44,86.4c-0.3,1.1-0.6,2.2-1,3.3c1.3-1.4,3-2.4,4.9-3C46.2,86.7,45,86.5,44,86.4z M59.8,116.9V90.1c0-1.7,0.3-2.7,1.3-3.2
			C60.5,87,59.7,87,58.8,87c-1.1,0-1.8,0-2.6-0.1c1.3,0.5,1.6,1.3,1.6,3v27c0,1.8-0.9,3.4-2.9,3.9c1.4-0.2,2.1-0.2,3.9-0.2
			s2.5,0.1,3.8,0.2C60.7,120.3,59.8,118.7,59.8,116.9z M74.4,86.5c-1.3,0.1-3,0.3-5.3,0.3c2.4,0.3,4.3,1,5.7,2.7
			C74.6,88.6,74.5,87.6,74.4,86.5z"/>
		<path d="M111.5,121.9c-3.4,0-4.5-0.3-7.4-0.3c-3.2,0-4.7,0.3-8.2,0.3c-0.2,0-0.4-0.3-0.4-0.7c0-0.4,0.1-0.7,0.3-0.7
			c3.4-0.2,4.4-0.9,4.4-2.2c0-0.6-0.2-1.4-0.5-2.2l-3-8.7H86l-3,8c-0.3,0.9-0.6,1.8-0.6,2.5c0,1.4,0.9,2.3,4.2,2.5
			c0.2,0.1,0.3,0.4,0.3,0.7c0,0.4-0.2,0.7-0.4,0.7c-3.1,0-3.8-0.3-6.7-0.3c-2.3,0-3.4,0.3-5.8,0.3c-0.3,0-0.4-0.3-0.4-0.7
			c0-0.4,0.4-0.7,0.6-0.7c3.6-0.3,4.7-2.1,6-5.2l12.2-30c0.1-0.3,0.4-0.4,0.7-0.4c0.4,0,0.7,0.2,0.7,0.4l10.8,30
			c0.9,2.7,2.5,4.7,6.6,5.2c0.2,0.1,0.5,0.4,0.5,0.7C112,121.6,111.7,121.9,111.5,121.9z M80.6,118.2c0-0.5,0.1-1.1,0.3-1.8
			c-0.9,2.1-1.9,3.5-3.5,4.3c0.8-0.1,1.6-0.1,2.6-0.1c0.7,0,1.3,0,1.8,0.1C80.9,120,80.6,119,80.6,118.2z M91.6,92.4l-5,13.3h9.5
			L91.6,92.4z M103.2,116.9L92.8,87.2l-1,2.6l9.3,27.1c0.2,0.5,0.3,1.1,0.3,1.6c0,1.1-0.6,2-1.8,2.3c1.4-0.2,2.1-0.2,3.8-0.2
			c1.7,0,2.7,0,4.1,0.2C105.2,120.3,103.8,118.5,103.2,116.9z"/>
		<path d="M132.2,121.9c-3.4,0-6.4-0.3-9.6-0.3c-3.2,0-5.4,0.3-8.8,0.3c-0.2,0-0.4-0.3-0.4-0.7c0-0.4,0.2-0.7,0.4-0.7
			c5.1-0.6,5.4-1.7,5.4-4.4V91.6c0-2.7-0.4-3.8-5.4-4.4c-0.2-0.1-0.4-0.4-0.4-0.7c0-0.4,0.2-0.8,0.4-0.8c3.4,0,5.1,0.3,8.3,0.3
			c3.2,0,5.2-0.3,8.7-0.3c6.5,0,10.9,3.4,10.9,8.4c0,3.6-3.4,7-7.7,8c5.6,1.1,10.1,4.3,10.1,9.2
			C144.1,117.8,139.3,121.9,132.2,121.9z M122.3,116.7V90.4c0-2,0.4-3,2-3.4c-1.1,0.1-1.6,0.1-3,0.1c-1.7,0-2.5,0-3.9-0.2
			c2,0.5,2.9,2.1,2.9,3.9v26.1c0,1.8-0.9,3.4-2.9,3.9c1.4-0.2,2.1-0.2,3.9-0.2c1.7,0,2.4,0,3.8,0.2
			C123.1,120.3,122.3,118.5,122.3,116.7z M128.9,87.4h-1c-2.5,0-3.3,1.1-3.3,2.8v11.4h3.8c5.5,0,7.6-2.5,7.6-7.5
			C135.9,89.7,133.8,87.4,128.9,87.4z M130.2,103.3h-5.7v12.8c0,2.7,0.9,4.1,6,4.1c4.4,0,7.8-3.4,7.8-8.9
			C138.3,106.4,135.4,103.3,130.2,103.3z M130.5,86.7c4.6,0.2,6.5,2.9,6.5,7.4c0,4-1.3,6.3-3.6,7.4c3.5-1.4,6-4.3,6-7.4
			C139.4,89.3,135.9,86.7,130.5,86.7z M132.7,102.6c4.6,0.9,6.7,4.6,6.7,8.8c0,6.1-4.1,9.7-7.9,9.7c6,0,10.3-3.3,10.3-9.7
			C141.8,107.1,137.9,103.4,132.7,102.6z"/>
		<path d="M177,121.9c-3.3-0.1-10.8-0.3-14.2-0.3s-10.7,0.2-14,0.3c-0.2,0-0.4-0.3-0.4-0.7s0.2-0.7,0.4-0.7c5.1-0.6,5.4-1.7,5.4-4.4
			V91.6c0-2.7-0.4-3.8-5.4-4.4c-0.2,0-0.4-0.3-0.4-0.7c0-0.4,0.2-0.7,0.4-0.7c3.4,0,4.8,0.3,8.1,0.3c3.2,0,4.6-0.3,8-0.3
			c0.3,0,0.4,0.4,0.4,0.7c0,0.4-0.2,0.7-0.4,0.7c-5.1,0.6-5.4,1.7-5.4,4.4v25.3c0,2.5,1.7,3.1,3,3.1h5.2c5.5,0,7.7-3.5,9.9-8.1
			c0.1-0.2,0.3-0.2,0.5-0.2c0.5,0,1,0.4,0.9,0.7C177.9,115.8,177.5,118.1,177,121.9z M162.7,121.6c-3.4,0-10.7,0.2-14,0.3
			L162.7,121.6z M157.1,117V90.8c0-1.8,0.8-3.4,2.8-3.9c-1.4,0.2-2.1,0.2-3.8,0.2c-1.7,0-2.4-0.1-3.9-0.2c2,0.5,2.9,2.1,2.9,3.9V117
			c0,1.8-0.9,3.4-2.9,3.9c1.4-0.2,2.1-0.2,3.9-0.2h3.8C158,120.2,157.1,118.8,157.1,117z M169.5,120.7c1.8,0.1,3.9,0.1,5.4,0.2
			c0.2-1.2,0.4-2.3,0.6-3.3C173.9,119.3,172.1,120.5,169.5,120.7z"/>
		<path d="M207.9,121.9c-3.3-0.1-10.5-0.3-14-0.3c-3.4,0-10.7,0.2-14,0.3c-0.3,0-0.4-0.3-0.4-0.7c0-0.4,0.2-0.7,0.4-0.7
			c5.1-0.6,5.4-1.7,5.4-4.4V91.6c0-2.7-0.3-3.8-5.4-4.4c-0.3-0.1-0.4-0.4-0.4-0.7c0-0.4,0.2-0.8,0.4-0.8c3.3,0.2,10,0.3,13.5,0.3
			c3.5,0,10.2-0.2,13.5-0.3c0.4,2.9,0.9,5.1,1.7,7.9c0.1,0.3-0.3,0.6-0.9,0.6c-0.3,0-0.5-0.2-0.6-0.4c-1.5-4.8-5-6.2-8.2-6.2h-5.3
			c-1.4,0-3,0.6-3,3.1v11.6h6.6c2.7,0,4.2-0.4,4.8-5.5c0-0.3,0.3-0.4,0.7-0.4c0.4,0,0.7,0.2,0.7,0.4c0,2.6-0.3,4-0.3,6.4
			c0,2.5,0.3,3.9,0.3,6.5c0,0.3-0.4,0.4-0.7,0.4c-0.4,0-0.7-0.2-0.7-0.4c-0.6-5.1-2.1-5.7-4.8-5.7h-6.6v12.8c0,2.6,1.7,3.1,3,3.1
			h5.7c4.1,0,8.7-2.9,10.6-7.1c0.1-0.2,0.3-0.2,0.5-0.2c0.6,0,1,0.4,0.9,0.7C210,116.2,209,118.7,207.9,121.9z M188.3,117V90.8
			c0-1.6,0.7-3.2,2.4-3.8c-2.2-0.1-5-0.1-7.3-0.2c2,0.5,2.9,2.1,2.9,3.9V117c0,1.8-0.9,3.4-2.9,3.9c1.4-0.2,2.1-0.2,3.9-0.2h3.9
			C189.2,120.2,188.3,118.8,188.3,117z M201.5,103.3c0-0.5,0-1,0.1-1.5c-0.7,0.9-1.6,1.3-2.6,1.5c1,0.2,1.9,0.6,2.6,1.6
			C201.5,104.4,201.5,103.9,201.5,103.3z M205.2,86.8c-1.2,0.1-3,0.1-4.4,0.1c2,0.1,3.5,1,4.8,2.1C205.5,88.4,205.3,87.4,205.2,86.8
			z M201.3,120.7c1.6,0.1,3.7,0.1,5.1,0.1c0.3-0.9,0.8-2.2,1.1-3.1C205.8,119.1,203.6,120.4,201.3,120.7z"/>
	</g>
	<g>
		<g>
			<path d="M37.5,149.8c-1.1,0-1.5-0.3-1.5-1.4v-2c0-0.7-0.3-1.2-1-1.2h-1.4v4.4h-1.4v-10H35c1.6,0,2.3,0.8,2.3,2.2v1.1
				c0,1-0.3,1.6-1.3,1.8c0.9,0.2,1.3,0.9,1.3,1.7v1.8c0,0.3,0.1,0.4,0.4,0.4v1.1H37.5z M35.9,141.9c0-0.6-0.2-1-0.9-1h-1.5v3.3h1.3
				c0.7,0,1.1-0.4,1.1-1.1V141.9z"/>
			<path d="M44.9,149.7v-10h4.7v1.3h-3.2v2.9h2.3v1.2h-2.3v3.3h3.2v1.3H44.9z"/>
			<path d="M58.9,149.9c-1.7,0-2.8-1.1-2.8-2.5v-0.7h1.4v0.5c0,1,0.5,1.5,1.4,1.5c0.9,0,1.3-0.5,1.3-1.3c0-0.9-0.4-1.4-1.7-2.2
				c-1.1-0.7-2.3-1.7-2.3-3.1c0-1.4,0.9-2.6,2.6-2.6c1.6,0,2.7,1.1,2.7,2.5v0.6h-1.4v-0.5c0-0.8-0.4-1.5-1.4-1.5
				c-0.8,0-1.2,0.5-1.2,1.1c0,0.9,0.4,1.4,1.8,2.3c1.5,0.9,2.1,1.8,2.1,3.1C61.7,148.9,60.5,149.9,58.9,149.9z"/>
			<path d="M72.4,141v8.7H71V141H69v-1.3h5.5v1.3H72.4z"/>
			<path d="M85.7,149.7l-0.5-2.5H83l-0.5,2.5h-1.4l2.3-10h1.5l2.3,10H85.7z M84.1,141.9l-0.8,4.1h1.7L84.1,141.9z"/>
			<path d="M96.8,149.9c-1.6,0-2.8-1-2.8-2.6v-7.6h1.4v7.6c0,0.9,0.4,1.4,1.4,1.4c0.9,0,1.4-0.5,1.4-1.4v-7.6h1.4v7.6
				C99.6,149,98.4,149.9,96.8,149.9z"/>
			<path d="M112.6,149.8c-1.1,0-1.5-0.3-1.5-1.4v-2c0-0.7-0.3-1.2-1-1.2h-1.4v4.4h-1.4v-10h2.9c1.6,0,2.3,0.8,2.3,2.2v1.1
				c0,1-0.3,1.6-1.3,1.8c0.9,0.2,1.3,0.9,1.3,1.7v1.8c0,0.3,0.1,0.4,0.4,0.4v1.1H112.6z M111,141.9c0-0.6-0.2-1-0.9-1h-1.5v3.3h1.3
				c0.7,0,1.1-0.4,1.1-1.1V141.9z"/>
			<path d="M124.2,149.7l-0.5-2.5h-2.2l-0.5,2.5h-1.4l2.3-10h1.5l2.3,10H124.2z M122.6,141.9l-0.8,4.1h1.7L122.6,141.9z"/>
			<path d="M137.2,149.7l-2.5-4.9l-0.8-1.8v6.6h-1.4v-10h1.2l2.4,5l0.8,1.8v-6.7h1.4v10H137.2z"/>
			<path d="M148.8,141v8.7h-1.4V141h-2.1v-1.3h5.5v1.3H148.8z"/>
			<path d="M172.2,149.9c-0.6,0-1.1-0.3-1.6-0.8c-0.6,0.5-1.4,0.8-2.1,0.8c-1.5,0-2.5-1.1-2.5-2.5c0-1.3,0.7-2.3,1.9-3.2
				c-0.3-0.7-0.4-1.5-0.4-2.2c0-1.5,0.8-2.6,2.2-2.6c1.3,0,1.9,0.9,1.9,2.2c0,1.3-0.9,2.3-2.2,3c0.3,0.9,0.8,2,1.2,2.6
				c0.6-0.9,1-2.1,1-2.8h1.1c0,1.1-0.6,2.6-1.3,3.7c0.3,0.3,0.6,0.5,0.9,0.5c0.3,0,0.4-0.1,0.4-0.5v-1h1v1
				C173.7,149.3,173.1,149.9,172.2,149.9z M168.3,145.4c-0.6,0.5-1,1.1-1,1.8c0,1,0.5,1.5,1.4,1.5c0.4,0,0.8-0.2,1-0.4
				C169.2,147.5,168.7,146.4,168.3,145.4z M169.7,140.7c-0.6,0-0.9,0.5-0.9,1.4c0,0.4,0.1,1,0.3,1.6c1-0.7,1.4-1.5,1.4-2
				C170.4,141.1,170.2,140.7,169.7,140.7z"/>
			<path d="M192.2,149.7h-3v-10h2.9c1.6,0,2.3,0.8,2.3,2.2v0.8c0,1-0.4,1.6-1.3,1.8c1,0.2,1.4,0.9,1.4,1.8v1.1
				C194.5,148.9,193.8,149.7,192.2,149.7z M193,141.9c0-0.6-0.2-1-0.9-1h-1.5v3.2h1.3c0.7,0,1.1-0.4,1.1-1.1V141.9z M193.1,146.3
				c0-0.7-0.4-1.1-1.1-1.1h-1.4v3.3h1.5c0.7,0,0.9-0.4,0.9-1V146.3z"/>
			<path d="M205.8,149.7l-0.5-2.5h-2.2l-0.5,2.5h-1.4l2.3-10h1.5l2.3,10H205.8z M204.2,141.9l-0.8,4.1h1.7L204.2,141.9z"/>
			<path d="M219.6,149.8c-1.1,0-1.5-0.3-1.5-1.4v-2c0-0.7-0.3-1.2-1-1.2h-1.4v4.4h-1.4v-10h2.9c1.6,0,2.3,0.8,2.3,2.2v1.1
				c0,1-0.3,1.6-1.3,1.8c0.9,0.2,1.3,0.9,1.3,1.7v1.8c0,0.3,0.1,0.4,0.4,0.4v1.1H219.6z M218,141.9c0-0.6-0.2-1-0.9-1h-1.5v3.3h1.3
				c0.7,0,1.1-0.4,1.1-1.1V141.9z"/>
		</g>
		<g>
			<path d="M17.8,144.3c-0.4,0-0.6,0.2-0.9,0.4c-0.3,0.2-0.6,0.5-1.2,0.5c-2.4,0-4-0.7-15.6-0.7c-0.1,0-0.2-0.2-0.2-0.4
				c0-0.2,0.1-0.4,0.2-0.4c11.6,0,13.2-0.7,15.6-0.7c0.6,0,0.9,0.2,1.2,0.5c0.2,0.2,0.5,0.4,0.9,0.4"/>
		</g>
		<g>
			<path d="M234.2,143.9c0.4,0,0.6-0.2,0.9-0.4c0.3-0.2,0.6-0.5,1.2-0.5c2.4,0,4,0.7,15.6,0.7c0.1,0,0.2,0.2,0.2,0.4
				c0,0.2-0.1,0.4-0.2,0.4c-11.6,0-13.2,0.7-15.6,0.7c-0.6,0-0.9-0.2-1.2-0.5c-0.2-0.2-0.5-0.4-0.9-0.4"/>
		</g>
	</g>
</g>
</svg>
