<?xml version="1.0" encoding="utf-8"?>
<!-- Generator: Adobe Illustrator 25.0.1, SVG Export Plug-In . SVG Version: 6.00 Build 0)  -->
<svg version="1.1" id="Layer_1" xmlns="http://www.w3.org/2000/svg" xmlns:xlink="http://www.w3.org/1999/xlink" x="0px" y="0px"
	 viewBox="0 0 504 267.31" style="enable-background:new 0 0 504 267.31;" xml:space="preserve">
<style type="text/css">
	.st0{fill:#010101;}
</style>
<g>
	<g>
		<g>
			<path class="st0" d="M175.15,60.04c5.5,4,11.08,5.96,16.94,5.96c16.76,0,27.56-14.8,45.43-37.51
				c7.73-9.87,14.06-17.87,20.94-22.71l0.84,0.74c-11.45,9.4-18.99,24.67-30.34,39.65c-10.71,14.06-23,21.13-37.24,21.13
				c-6.7,0-12.85-1.58-18.34-4.75L175.15,60.04z M233.24,12.57c-4.47,12.47-13.59,19.27-23.46,19.27c-6.89,0-11.26-4.1-11.26-10.24
				c0-10.61,13.87-21.6,37.24-21.6c10.7,0,20.75,2.33,30.25,2.33c6.32,0,11.17-0.65,14.33-2.05l0.47,1.12
				c-3.82,2.23-8.66,3.54-14.15,3.54c-8.57,0-19.74-3.54-32.96-3.54c-20.1,0-33.97,10.52-33.97,20.29c0,5.21,3.91,8.75,9.31,8.75
				c7.36,0,15.91-6.24,22.9-18.34L233.24,12.57z"/>
			<path class="st0" d="M282.65,8.1c1.95,0,3.26,1.3,3.26,3.63c0,8-10.89,20.39-33.79,31.46l-5.02,7.63
				c3.91-3.82,8.1-5.77,11.63-5.77c2.51,0,4,1.4,4,3.72c0,1.68-1.67,4.1-4.56,7.82c-3.17,4.1-5.02,6.52-5.02,7.73
				c0,0.84,0.55,1.3,1.58,1.3c3.44,0,8.93-4.37,16.66-12.94l0.93,0.75c-8.1,9.03-14.05,13.87-18.52,13.87
				c-2.61,0-3.91-1.12-3.91-3.16c0-1.49,1.3-3.72,3.81-6.89c3.54-4.56,5.68-7.45,5.68-9.21c0-0.84-0.74-1.3-2.14-1.3
				c-4.84,0-12.47,6.33-20.38,19.64h-3.91C257.71,28.2,273.07,8.1,282.65,8.1z M284.61,11.92c0-1.68-0.83-2.51-2.04-2.51
				c-5.49,0-15.54,10.42-29.51,31.74C274.47,30.62,284.61,18.8,284.61,11.92z"/>
			<path class="st0" d="M271.21,67.3c-3.36,0-4.94-1.49-4.94-4.47c0-2.7,1.67-6.52,5.21-10.42c4.47-4.93,9.96-7.35,13.04-7.35
				c2.7,0,4.19,1.21,4.19,2.98c0,3.72-6.33,9.21-18.15,11.73c-1.21,1.68-1.86,3.07-1.86,4c0,1.4,1.02,2.05,2.89,2.05
				c4.74,0,14.05-4.1,22.53-13.13l1.02,0.75C286.1,63.11,276.23,67.3,271.21,67.3z M287.31,48.03c0-0.93-0.65-1.49-1.58-1.49
				c-2.8,0-8.01,3.91-14.34,11.82C282.09,55.57,287.31,50.82,287.31,48.03z"/>
		</g>
	</g>
	<g>
		<path d="M19.46,140.12c0,4.71,0.1,18.36,0.2,19.76c0.2,2.21,1.2,3.21,3.31,3.21h6.42c0.7,0,0.8,0.3,0.8,0.7v2.41
			c0,0.5-0.1,0.8-0.9,0.8c-1.4,0-4.51-0.3-13.94-0.3c-8.83,0-12.74,0.3-13.84,0.3c-0.7,0-0.8-0.3-0.8-0.7v-2.51
			c0-0.5,0.1-0.7,0.6-0.7h4.31c3.41,0,4.11-0.5,4.41-3.21c0.1-1,0.4-16.65,0.4-28.29v-11.54c0-6.62-0.1-17.55-0.2-18.56
			c-0.2-2.01-1.2-2.21-3.91-2.21H0.6c-0.5,0-0.6-0.2-0.6-0.8v-2.41c0-0.5,0.1-0.7,0.6-0.7c1.1,0,4.71,0.3,14.24,0.3
			c1.8,0,7.72-0.3,11.03-0.3c11.33,0,16.65,1.1,22.37,5.02c4.71,3.21,7.62,8.83,7.62,14.54c0,12.64-9.53,20.46-25.48,20.46
			c-3.71,0-7.72-0.1-10.93-0.5V140.12z M19.46,131.3c2.01,0.6,5.32,0.9,9.23,0.9c6.12,0,11.54-3.31,14.14-6.82
			c2.21-2.91,2.61-6.62,2.61-10.13c0-13.14-12.24-16.65-18.15-16.65c-1.71,0-5.82,0-7.82,0.7V131.3z"/>
		<path d="M77.23,138.82c-1,2.51-6.52,17.75-7.02,19.86c-0.1,0.7-0.3,1.71-0.3,2.21c0,1.4,1.2,2.21,3.41,2.21h4.71
			c0.7,0,1,0.2,1,0.7v2.31c0,0.7-0.3,0.9-0.8,0.9c-1.4,0-5.52-0.3-11.43-0.3c-7.32,0-9.53,0.3-10.93,0.3c-0.5,0-0.7-0.2-0.7-0.8
			v-2.41c0-0.5,0.4-0.7,0.8-0.7h3.51c3.01,0,4.41-1.4,5.82-4.61c0.7-1.6,8.02-20.16,10.93-28.39c0.7-2.01,8.83-23.57,9.73-26.28
			c0.3-1,0.8-2.31,0.1-3.41c-0.3-0.4-0.7-0.9-0.7-1.3c0-0.3,0.2-0.7,0.9-0.9c2.81-0.6,7.22-3.61,8.33-5.02c0.5-0.5,0.8-0.9,1.3-0.9
			c0.6,0,0.8,0.6,1.1,1.71c1.91,6.32,9.73,28.79,11.63,35.21c2.31,7.82,8.83,26.48,10.23,29.39c1.71,3.31,4.31,4.51,6.82,4.51h3.31
			c0.6,0,0.8,0.3,0.8,0.7v2.51c0,0.5-0.3,0.7-1,0.7c-1.81,0-3.91-0.3-12.04-0.3c-8.33,0-11.84,0.3-14.14,0.3c-0.5,0-0.8-0.3-0.8-0.9
			v-2.31c0-0.6,0.3-0.7,0.9-0.7h2.51c2.81,0,3.71-1,3.01-3.81c-0.8-3.61-4.91-16.45-6.32-20.46H77.23z M100.7,135.21
			c-0.9-3.01-9.03-28.09-9.53-29.59c-0.3-0.7-0.5-1.4-0.8-1.4c-0.4,0-0.8,0.7-1.1,1.5c-0.5,1.3-10.03,26.98-10.73,29.49H100.7z"/>
		<path d="M147.24,121.07c0-7.42,0-13.84-0.1-16.75c-0.1-3.31-1.3-5.02-3.81-5.02h-4.01c-0.5,0-0.6-0.3-0.6-0.7v-2.51
			c0-0.5,0.1-0.7,0.6-0.7c0.9,0,4.01,0.3,12.44,0.3c5.62,0,14.94-0.3,16.75-0.3c8.33,0,14.94,2.51,18.76,6.12
			c3.31,3.21,5.22,7.72,5.22,11.43c0,12.54-5.72,17.25-18.56,20.06v0.2c2.41,0.9,3.81,2.71,4.61,3.81c1.2,1.3,8.33,11.54,9.13,12.84
			c0.5,1,6.92,10.13,8.83,11.54c2.11,1.5,4.41,1.71,7.22,1.71c0.7,0,0.8,0.4,0.8,0.8v2.21c0,0.6-0.1,0.9-0.8,0.9
			c-0.8,0-3.41-0.3-7.82-0.3c-2.91,0-6.62,0.2-8.12,0.3c-1.1-1-3.31-4.41-4.21-5.72c-0.8-1.2-6.22-10.73-6.72-11.53
			c-0.4-0.7-5.22-7.92-6.42-9.33c-2.61-3.11-5.02-5.82-10.83-5.82c-0.9,0-1.91,0-3.31,0.3v5.62c0,5.92,0.1,17.15,0.2,18.66
			c0.2,2.11,1,3.91,2.51,3.91h6.32c0.7,0,0.8,0.3,0.8,0.8v2.21c0,0.7-0.1,0.9-1.1,0.9c-1.1,0-3.61-0.3-13.14-0.3
			c-9.13,0-11.44,0.3-12.54,0.3c-0.8,0-0.8-0.3-0.8-0.8v-2.31c0-0.5,0-0.8,0.5-0.8h4.11c2.21,0,3.91-0.7,3.91-3.41
			c0.2-9.93,0.2-19.36,0.2-28.89V121.07z M156.27,131c1.5,0.3,2.61,0.4,4.51,0.4c18.25,0,21.77-12.54,21.77-16.75
			c0-4.61-2.11-9.03-5.02-11.44c-3.91-3.11-8.33-4.61-16.65-4.61c-1.2,0-2.51,0.2-3.41,0.8c-0.7,0.5-1.2,1.6-1.2,3.21V131z"/>
		<path d="M221.95,162.99c-1.2-0.9-1.8-1.2-2.31-1.2c-0.6,0-1,0.7-1.6,1.71c-0.6,1.1-1.1,1.2-1.8,1.2c-0.6,0-1.1-0.5-0.9-1.6
			c0.4-2.51,1.4-15.25,1.71-18.15c0.1-0.6,0.3-0.6,0.7-0.6l1.5,0.1c0.4,0,0.6,0.2,0.6,0.8c0.1,3.21,0.3,6.52,3.61,11.63
			c3.01,4.71,8.53,7.42,14.04,7.42c6.02,0,13.64-3.71,13.64-12.74c0-10.33-7.42-14.14-15.45-16.95c-3.11-1.1-10.33-3.61-14.64-8.12
			c-3.31-3.31-5.02-8.02-5.02-14.64c0-5.02,3.11-9.93,6.22-12.84c3.61-3.41,8.63-4.81,14.04-4.81c5.72,0,10.13,1.71,11.84,2.51
			c0.9,0.5,1.4,0.4,1.91-0.1l1.3-1.2c0.5-0.4,0.8-0.6,1.3-0.6c0.5,0,0.8,0.8,0.8,1.71c0,3.51,1.3,13.74,1.4,15.95
			c0,0.5-0.1,0.7-0.5,0.8l-1.2,0.3c-0.3,0.1-0.5,0-0.6-0.3c-0.8-2.91-2.11-6.82-6.22-11.13c-2.71-2.91-6.22-4.31-10.93-4.31
			c-8.93,0-12.14,6.62-12.14,11.74c0,2.81,0.6,6.12,3.11,8.73c2.91,2.91,8.53,5.11,11.43,6.02c6.92,2.21,12.54,3.91,16.15,8.33
			c2.61,3.11,4.41,7.02,4.41,13.64c0,11.84-7.22,21.97-20.46,21.97C230.88,168.21,225.96,166.1,221.95,162.99z"/>
		<path d="M287.65,161.69c-7.12-4.31-14.74-15.15-14.74-29.79c0-6.12,1.6-15.65,9.33-24.98c8.83-10.73,18.76-12.74,27.18-12.74
			c6.32,0,14.54,1.3,22.47,7.92c7.32,6.32,13.74,16.15,13.74,29.99c0,7.32-2.31,14.94-7.52,21.97
			c-6.12,8.12-15.05,14.14-28.89,14.14C304.3,168.21,295.57,166.6,287.65,161.69z M335.79,132.9c0-21.97-15.65-34.91-26.78-34.91
			c-1.5,0-8.33-1.2-15.85,5.92c-6.72,6.42-10.03,16.55-10.03,24.77c0,26.38,18.36,35.71,26.88,35.71
			C332.08,164.4,335.79,141.83,335.79,132.9z"/>
		<path d="M363.98,108.73c0-5.92-3.01-9.23-6.62-9.33l-4.11-0.1c-0.5,0-0.6-0.4-0.6-0.7v-2.61c0-0.4,0.1-0.6,0.6-0.6
			s1.3,0.1,2.81,0.1c1.5,0.1,3.71,0.2,7.12,0.2c3.41,0,5.52-0.2,6.72-0.2c1.3,0,2.11,0.4,2.91,1.3c0.5,0.6,19.96,25.88,21.06,27.28
			c1.1,1.4,18.06,22.17,20.46,25.38h0.4v-11.94c0-8.93-0.1-13.84-0.3-18.86c-0.1-3.91-0.6-13.74-1.2-15.45
			c-0.8-2.51-2.71-3.91-5.52-3.91h-3.21c-0.4,0-0.6-0.2-0.6-0.7v-2.61c0-0.4,0.2-0.6,0.6-0.6c1.4,0,4.61,0.3,11.03,0.3
			c6.02,0,8.43-0.3,9.73-0.3c0.7,0,0.8,0.3,0.8,0.7v2.51c0,0.4-0.2,0.7-0.6,0.7h-2.71c-2.71,0-3.71,1.7-3.91,5.52
			c-0.4,6.72-0.4,16.65-0.4,23.17v37.51c0,1.4-0.1,2.41-0.5,2.41c-1.2,0-2.11-1.2-2.41-1.61c-0.1-0.2-6.02-7.62-12.24-15.45
			c-7.02-8.73-14.34-17.95-14.95-18.56c-1.1-1-19.56-24.17-20.16-24.98h-0.6v22.27c0,9.33,0.8,25.68,1,27.68
			c0.4,3.91,1,5.82,3.71,5.82h3.01c0.7,0,0.8,0.3,0.8,0.9v2.21c0,0.6-0.1,0.8-0.8,0.8c-1,0-7.02-0.3-9.73-0.3
			c-2.11,0-9.03,0.3-10.03,0.3c-0.4,0-0.5-0.2-0.5-0.7v-2.61c0-0.3,0.1-0.6,0.6-0.6h3.41c2.91,0,4.01-1.2,4.51-6.12
			c0.2-1.91,0.4-13.34,0.4-31.19V108.73z"/>
		<path d="M450.94,102.81c0,9.43-8.73,15.85-10.53,16.95c-0.5,0.3-1,0.8-1.81,0.8c-0.7,0-1-0.3-1-0.8s0-0.7,0.8-1.3
			c2.11-2.01,6.32-6.42,6.32-11.33c0-1.3-0.8-2.51-1.5-2.81c-0.9-0.4-5.11-1.4-5.11-5.82c0-2.31,1.8-4.31,5.02-4.31
			C446.22,94.18,450.94,97.19,450.94,102.81z"/>
		<path d="M467.59,162.99c-1.2-0.9-1.8-1.2-2.31-1.2c-0.6,0-1,0.7-1.6,1.71c-0.6,1.1-1.1,1.2-1.8,1.2c-0.6,0-1.1-0.5-0.9-1.6
			c0.4-2.51,1.4-15.25,1.71-18.15c0.1-0.6,0.3-0.6,0.7-0.6l1.5,0.1c0.4,0,0.6,0.2,0.6,0.8c0.1,3.21,0.3,6.52,3.61,11.63
			c3.01,4.71,8.53,7.42,14.04,7.42c6.02,0,13.64-3.71,13.64-12.74c0-10.33-7.42-14.14-15.45-16.95c-3.11-1.1-10.33-3.61-14.64-8.12
			c-3.31-3.31-5.02-8.02-5.02-14.64c0-5.02,3.11-9.93,6.22-12.84c3.61-3.41,8.63-4.81,14.04-4.81c5.72,0,10.13,1.71,11.84,2.51
			c0.9,0.5,1.4,0.4,1.91-0.1l1.3-1.2c0.5-0.4,0.8-0.6,1.3-0.6c0.5,0,0.8,0.8,0.8,1.71c0,3.51,1.3,13.74,1.4,15.95
			c0,0.5-0.1,0.7-0.5,0.8l-1.2,0.3c-0.3,0.1-0.5,0-0.6-0.3c-0.8-2.91-2.11-6.82-6.22-11.13c-2.71-2.91-6.22-4.31-10.93-4.31
			c-8.93,0-12.14,6.62-12.14,11.74c0,2.81,0.6,6.12,3.11,8.73c2.91,2.91,8.53,5.11,11.43,6.02c6.92,2.21,12.54,3.91,16.15,8.33
			c2.61,3.11,4.41,7.02,4.41,13.64c0,11.84-7.22,21.97-20.46,21.97C476.52,168.21,471.6,166.1,467.59,162.99z"/>
		<path d="M107.26,199.6h-2.51c-3.21,0-11.94,0-15.85,1.2c-4.51,1.4-7.52,8.43-8.93,11.64c-0.2,0.5-0.5,0.6-1,0.5l-1.81-0.5
			c-0.3-0.1-0.6-0.2-0.4-0.8c1-3.61,4.51-16.55,4.71-17.65c0.2-1.3,0.6-1.61,1-1.61c0.5,0,0.8,0.1,1.2,0.4l1.3,0.9
			c1.81,1.3,2.81,1.6,5.72,1.71c5.32,0.2,9.53,0.6,18.96,0.6h4.81c10.93,0,15.25-0.4,20.16-0.6c2.21-0.1,3.51-0.4,5.22-1.4l1.91-1.2
			c0.5-0.3,0.8-0.4,1.2-0.4c0.5,0,0.7,0.3,0.9,1.61c0.2,1.2,2.11,13.64,2.91,18.05c0.1,0.5-0.1,0.7-0.6,0.8l-1.6,0.4
			c-0.4,0.1-0.5,0-0.8-0.7c-0.8-1.91-3.81-9.63-7.12-11.23c-3.01-1.5-12.44-1.7-17.35-1.7h-2.81v28.59c0,1.4,0,29.49,0.1,31.19
			c0.2,2.51,1,4.01,3.41,4.01h6.32c0.9,0,1,0.3,1,1v2.11c0,0.5-0.1,0.8-1,0.8c-1,0-4.21-0.3-14.04-0.3c-9.63,0-13.84,0.3-15.25,0.3
			c-0.8,0-0.9-0.4-0.9-1v-1.91c0-0.7,0.1-1,0.7-1h6.82c2.01,0,3.21-1.2,3.31-2.41c0.3-2.91,0.3-33.7,0.3-35.61V199.6z"/>
		<path d="M166.92,239.12c-1,2.51-6.52,17.75-7.02,19.86c-0.1,0.7-0.3,1.71-0.3,2.21c0,1.4,1.2,2.21,3.41,2.21h4.71
			c0.7,0,1,0.2,1,0.7v2.31c0,0.7-0.3,0.9-0.8,0.9c-1.4,0-5.52-0.3-11.43-0.3c-7.32,0-9.53,0.3-10.93,0.3c-0.5,0-0.7-0.2-0.7-0.8
			v-2.41c0-0.5,0.4-0.7,0.8-0.7h3.51c3.01,0,4.41-1.4,5.82-4.61c0.7-1.6,8.02-20.16,10.93-28.39c0.7-2.01,8.83-23.57,9.73-26.28
			c0.3-1,0.8-2.31,0.1-3.41c-0.3-0.4-0.7-0.9-0.7-1.3c0-0.3,0.2-0.7,0.9-0.9c2.81-0.6,7.22-3.61,8.33-5.02c0.5-0.5,0.8-0.9,1.3-0.9
			c0.6,0,0.8,0.6,1.1,1.71c1.91,6.32,9.73,28.79,11.63,35.21c2.31,7.82,8.83,26.48,10.23,29.39c1.71,3.31,4.31,4.51,6.82,4.51h3.31
			c0.6,0,0.8,0.3,0.8,0.7v2.51c0,0.5-0.3,0.7-1,0.7c-1.81,0-3.91-0.3-12.04-0.3c-8.33,0-11.84,0.3-14.14,0.3c-0.5,0-0.8-0.3-0.8-0.9
			v-2.31c0-0.6,0.3-0.7,0.9-0.7h2.51c2.81,0,3.71-1,3.01-3.81c-0.8-3.61-4.91-16.45-6.32-20.46H166.92z M190.4,235.51
			c-0.9-3.01-9.03-28.09-9.53-29.59c-0.3-0.7-0.5-1.4-0.8-1.4c-0.4,0-0.8,0.7-1.1,1.5c-0.5,1.3-10.03,26.98-10.73,29.49H190.4z"/>
		<path d="M237.74,223.37c0-3.71-0.2-15.95-0.3-17.75c-0.3-5.82-1.91-6.02-6.52-6.02h-3.11c-0.6,0-0.8-0.2-0.8-0.7v-2.51
			c0-0.5,0.2-0.7,0.8-0.7c1.6,0,6.12,0.3,13.34,0.3c3.21,0,9.23-0.3,12.74-0.3c7.82,0,14.24,0.7,17.75,2.71
			c5.72,3.11,7.72,7.72,7.72,13.64c0,9.93-4.41,12.44-12.24,16.55l0.3,0.2c9.73,3.21,16.25,9.23,16.25,19.86
			c0,5.11-3.11,12.14-7.72,15.05c-4.21,2.61-9.93,3.61-19.16,3.61c-6.92,0-10.83-0.3-15.04-0.3c-5.02,0-10.93,0.3-12.84,0.3
			c-1.2,0-1.4-0.2-1.4-0.6v-2.61c0-0.5,0.2-0.7,0.9-0.7h4.81c3.11,0,3.61-1.2,4.01-4.41c0.3-2.31,0.5-15.55,0.5-23.77V223.37z
			 M246.56,227.29c1.91,0.2,3.61,0.2,5.32,0.2c5.72,0,10.23-0.9,12.64-2.61c4.11-3.11,5.62-7.62,5.62-12.04
			c0-3.81-1.2-7.82-4.91-10.53c-3.61-2.51-8.63-3.41-13.74-3.41c-1.4,0-2.51-0.1-3.31,0.1c-0.8,0.2-1.4,0.9-1.4,1.8
			c-0.1,2.01-0.2,10.73-0.2,19.06V227.29z M246.56,236.92v13.84c0,9.23,2.21,13.34,10.53,13.34c8.43,0,16.15-4.01,16.15-15.95
			c0-8.12-4.11-13.44-10.03-15.75c-4.11-1.6-8.83-1.71-13.44-1.71h-3.21V236.92z"/>
		<path d="M304.26,222.07c0-6.42-0.2-17.05-0.3-18.86c-0.2-2.61-0.7-3.61-3.71-3.61h-4.71c-0.6,0-0.7-0.5-0.7-1v-2.21
			c0-0.5,0.1-0.7,0.7-0.7c1.1,0,4.71,0.3,13.04,0.3c9.73,0,13.94-0.3,14.85-0.3c0.8,0,0.9,0.3,0.9,0.8v2.31c0,0.5-0.2,0.8-1,0.8
			h-6.02c-3.11,0-3.51,1-3.51,3.91c0,1.3-0.3,16.45-0.3,23.47v8.63c0,1.71,0,23.37,0.3,27.48c2.21,0.2,22.07,0.4,25.18,0
			c5.92-0.9,11.94-12.94,13.34-16.85c0.2-0.4,0.4-0.6,0.8-0.4l1.6,0.6c0.3,0.2,0.3,0.3,0.2,0.9c-0.3,0.7-4.31,17.25-4.91,19.96
			c-2.61-0.2-31.5-0.3-42.23-0.3c-7.92,0-11.54,0.3-12.84,0.3c-0.7,0-0.8-0.2-0.8-0.7v-2.51c0-0.5,0.1-0.7,0.7-0.7h4.81
			c3.71,0,4.31-1.4,4.31-2.71c0-1.91,0.3-26.88,0.3-33V222.07z"/>
		<path d="M383.29,228.59c0.8,0,11.54-0.4,12.74-0.6c2.91-0.5,3.71-1.3,4.61-4.41c0.3-1,0.7-3.01,0.8-4.92c0-0.5,0.3-0.7,0.7-0.7
			l2.51,0.1c0.5,0,0.7,0.4,0.6,0.8c-0.3,1.71-0.3,9.93-0.3,11.44c0,3.51,0.4,8.33,0.6,10.43c0,0.5-0.2,0.7-0.6,0.8l-2.21,0.3
			c-0.5,0.1-0.7-0.2-0.8-0.9c-0.2-1.3-0.8-3.61-1.1-4.71c-0.6-2.11-1.71-3.61-4.31-3.91c-4.71-0.5-11.63-0.5-13.24-0.5v6.22
			c0,5.42,0.2,15.15,0.2,17.15c0.1,5.22,2.61,7.22,5.72,7.82c2.01,0.4,4.92,0.7,7.42,0.7c1.71,0,6.72-0.1,8.83-0.3
			c1.71-0.2,6.12-1.3,8.73-3.51c1.2-1,6.82-8.23,8.22-10.53c0.3-0.5,0.6-0.9,1.2-0.6l1.6,0.9c0.5,0.3,0.5,0.6,0.2,1.4l-5.32,14.74
			c-0.3,0.9-1,1.5-2.21,1.5c-1,0-8.93-0.3-40.12-0.3c-7.52,0-11.03,0.3-12.84,0.3c-0.6,0-0.9-0.2-0.9-0.7v-2.71c0-0.4,0.3-0.5,1-0.5
			h4.01c4.61,0,5.02-0.7,5.02-4.41v-23.77v-9.83c0-8.33-0.2-20.86-0.3-21.87c-0.4-3.21-1.4-3.91-5.12-3.91h-3.61
			c-0.5,0-0.8-0.1-0.8-0.7v-2.71c0-0.3,0.2-0.5,0.7-0.5c2.21,0,5.72,0.3,12.34,0.3h4.41c9.93,0,19.86-0.1,29.79-0.1
			c1.61,0,3.51-0.2,4.01-0.2s0.7,0.2,0.8,0.5c0.4,1.4,4.81,15.15,5.12,16.15c0.1,0.4,0.1,0.7-0.3,0.9l-1.5,0.8
			c-0.3,0.2-0.7-0.1-0.8-0.3c-0.2-0.4-7.62-9.93-10.03-11.43c-2.11-1.4-4.91-2.61-7.62-2.71l-17.85-0.4V228.59z"/>
	</g>
</g>
</svg>
